<?xml version="1.0" encoding="utf-8"?>
<!-- Generator: Adobe Illustrator 19.1.0, SVG Export Plug-In . SVG Version: 6.00 Build 0)  -->
<svg version="1.1" id="Layer_1" xmlns="http://www.w3.org/2000/svg" xmlns:xlink="http://www.w3.org/1999/xlink" x="0px" y="0px"
	 viewBox="-49 51 200 200" style="enable-background:new -49 51 200 200;" xml:space="preserve">
<style type="text/css">
	.st0{fill:#6988B0;}
</style>
<g>
	<path class="st0" d="M15.2,151.1c5.5-7.4-4-12.9-17.7-9.2c-8.6,2.3-11.9,9.8-10.7,14.1C-11.2,162.5,9.7,158.4,15.2,151.1z
		 M1.1,151.6c-1.9,2.7-9.5,4.1-10.2,1.8c-0.4-1.5,0.7-4.2,3.9-5C-0.4,147,3.1,149,1.1,151.6z"/>
	<path class="st0" d="M41.1,151.5c11.2-11.2-2.7-23.2-27.2-20.2c-3.5,0.4-11.2,2.7-16.8,7.2c0.6-0.1,1.2-0.3,1.8-0.3
		c18.6-2.2,30,6.9,21.5,15.4c-3.4,3.5-10.2,5.8-17,6.7C15.7,162.2,33.9,158.8,41.1,151.5z"/>
	<path class="st0" d="M64.5,157c16.4-18.5,0-37.2-33.8-34c-7.7,0.8-13.9,2.3-18.7,4.7c2.8-0.7,5.2-1,6.9-1.1
		c29.1-1.3,44.5,13.9,30.2,26.3c-5.7,4.9-16,8.4-26.4,9.6C37.7,166.6,56.3,166.1,64.5,157z"/>
	<path class="st0" d="M81.2,167c24.4-15.7,14.5-51-39.6-48c40.4,0.8,49.2,27.9,27,43.8c-9.1,6.5-29.6,6.3-37.2,4.9
		C42.2,170.2,67.4,175.8,81.2,167z"/>
	<path class="st0" d="M60.5,117.2c52.4,7.8,50.9,44.6,19.6,57.1C67.3,179.4,42.6,173,34,169c12.3,6.3,40.8,20.6,60.1,14
		C128,171.6,124.8,121.1,60.5,117.2z"/>
</g>
</svg>
