<?xml version="1.0" encoding="utf-8"?>
<!-- Generator: Adobe Illustrator 19.1.0, SVG Export Plug-In . SVG Version: 6.00 Build 0)  -->
<svg version="1.1" id="Layer_1" xmlns="http://www.w3.org/2000/svg" xmlns:xlink="http://www.w3.org/1999/xlink" x="0px" y="0px"
	 viewBox="-49 51 200 200" style="enable-background:new -49 51 200 200;" xml:space="preserve">
<style type="text/css">
	.st0{fill:#C26558;}
</style>
<path class="st0" d="M51,185.7c4.7,0,12.9-0.7,20.2-3.2c4.6,14.2-6.5,24-6.5,24c14.5-7.8,11.7-19.7,9.4-25.1
	c0.6-0.2,1.1-0.5,1.7-0.8c3.4,4.4,10.3,13.5,13.2,17.3c0,0-1.4-9-9.7-18.7c0.1-0.1,1.1-1.4,1.2-1.5c6.8,7.2,23.4,17.1,23.4,17.1
	c-4.6-8.4-15.5-16.3-20.7-19.8l0.1-0.1C109,176.1,111,157,111,157c-7,11-19.5,13.5-25.5,14c0.5-1.2,0.8-2.5,0.9-3.9
	c9.1-2.2,14.4-12.9,14.4-12.9c11-3.9,13.9-13.4,14.6-19.5c3.7-34.5-22.3-39.3-22.3-39.3c13.3,15.6,4.4,34,4.4,34
	c-5.1,0.2-4.4-9.8-4.4-9.8c-13,15.4,0.9,24.9,0.9,24.9c-0.4,7.7-5.6,11.4-9,12.9c-6.2-18.2-24.2-19-34-19s-27.8,0.8-34,19
	c-3.4-1.5-8.6-5.2-9-12.9c0,0,13.8-9.4,0.9-24.9c0,0,0.7,10-4.4,9.8c0,0-8.9-18.4,4.4-34c0,0-25.9,4.8-22.3,39.3
	c0.6,6,3.5,15.6,14.5,19.5c0,0,5.3,10.8,14.4,12.9c0.1,1.4,0.5,2.7,0.9,3.9c-5.9-0.5-18.4-3-25.5-14c0,0,2,19,27.7,17.9l0.1,0.1
	c-5.2,3.4-16.1,11.4-20.7,19.8c0,0,16.6-9.9,23.4-17.1c0.1,0.1,1.1,1.4,1.2,1.5c-8.3,9.8-9.7,18.7-9.7,18.7
	c2.9-3.8,9.8-12.9,13.2-17.3c0.5,0.3,1.1,0.5,1.7,0.8c-2.3,5.5-5.1,17.4,9.4,25.1c0,0-11.1-9.8-6.5-24
	C38.1,185.1,46.3,185.7,51,185.7z"/>
</svg>
