<?xml version="1.0" encoding="utf-8"?>
<!-- Generator: Adobe Illustrator 19.1.0, SVG Export Plug-In . SVG Version: 6.00 Build 0)  -->
<svg version="1.1" id="Layer_1" xmlns="http://www.w3.org/2000/svg" xmlns:xlink="http://www.w3.org/1999/xlink" x="0px" y="0px"
	 viewBox="-49 51 200 200" style="enable-background:new -49 51 200 200;" xml:space="preserve">
<style type="text/css">
	.st0{fill:#6E9B74;}
</style>
<path class="st0" d="M122.8,163.1c0-0.2,0-0.5,0-0.7c0,0,0-0.1,0-0.1c-0.2-3.6-1.5-7.2-3.6-10.7c-7.6-13.1-24.3-23.3-24.3-23.3
	C66.5,109,57,108.8,55.5,109c-0.2,0-0.4,0-0.6,0c-2.3-0.2-4.1,0.6-5.1,1.2c-0.6,0.4-1.3,0.6-2,0.6c-2.7,0.1-3.2,1-3.2,1
	c-0.2,0.3-0.4,0.6-0.6,0.8l0,0l0,0c-1.4,2.3-0.1,3.8,0.2,4.7c0.2,2.7,1.1,4.6,1.8,5.1c0.2,0.1,0.4,0.2,0.6,0.4
	c0.2,0.4,0.6,0.8,1.1,1.3c5.6,6.3,34.2,22.3,37.9,24.3c0.3,0.1,0.5,0.3,0.8,0.5c21.1,14.1,22.1,21.9,22.1,22.5c0-0.2,0-0.4,0-0.7
	c0,0.2,0,0.5,0,0.7c0,0,0,0,0,0c0,0,0,0,0,0c0,1.5-0.8,2.4-0.8,2.4c-0.3,0-0.6-0.1-1-0.1l0,0c0,0-7.4-1.6-20.4-12.5c0,0,0,0,0,0
	c-0.1-0.1-12.3-11.2-17.5-16.5c-0.8-0.8-1.4-1.4-1.8-1.9c0,0-0.1-0.3-0.7-0.5c-0.3-0.2-0.7-0.2-1-0.3l0,0c-0.5-0.1-1.2-0.1-2.2-0.1
	l-2.4-0.3c-0.2-0.1-0.4-0.3-0.5-0.5c-4.3-6.3-17.9-17.6-17.9-17.6C20.1,106-8,108.5-12.4,109c-0.4,0-0.7,0-1.1-0.1
	c-3.7-0.8-5.9,0.1-6.8,0.6c-0.2,0.1-0.2,0.4,0,0.5l1.8,1.2c0.1,0.1,0,0.3-0.1,0.2l-1.3-0.4c-0.7-0.2-1.2,0.3-0.7,0.7
	c2.5,2.2,3.1,3.1,4.4,3.3c0.7,0.1,1.3,0.4,1.9,0.8c4.5,3.1,16.3,6.6,20.7,7.8c0.5,0.1,0.9,0.4,1.3,0.6c0,0.1,0,0.2,0.1,0.3
	c1.9,4.1,4.2,4.6,4.2,4.6c1.7,0.1,2.5-1.2,2.8-2c0.1-0.2,0.2-0.4,0.2-0.6c0.6-0.5,1.5-0.6,2.2-0.3c5.5,2.1,12,7.5,16.8,11.9
	c3.5,3.2,6.5,6.8,9.3,10.6c7,9.9,21.8,24.6,25.4,28.1l0.1,0.2c2.5,2.1,15.3,12.5,26.6,14.5c0,0-13.5-1-26.5-14.3l0.5,1.5
	c0,0,0,0-0.1,0.1c-0.6,0.8-0.6,1.9,0,2.6c7.9,10.7,19.5,11.8,24.2,11.8c1.3,0,2.1-0.1,2.1-0.1l2.5-0.6c4.1,0.4,10.9-2.2,10.9-2.2
	c16.7-9,12.9-24.7,12.9-24.7c0.2-0.3,0.4-0.6,0.6-0.8l0.1-0.2c0.2-0.2,0.3-0.5,0.3-0.8C122.8,163.7,122.8,163.4,122.8,163.1z
	 M-7,112.6c-0.4,0.5-1.1,0.7-1.7,0.3c-0.5-0.4-0.7-1.1-0.3-1.7c0.4-0.5,1.1-0.7,1.7-0.3C-6.8,111.3-6.6,112-7,112.6z M10.3,122.3
	l0.8,5C11.1,127.3,9.6,125.6,10.3,122.3z M12.8,127.3c0,0-1-2.2,0-5C13,121.6,12.8,127.3,12.8,127.3z M8.1,122.3c2-7.2,6-0.7,6-0.7
	C9.8,117.1,8.1,122.3,8.1,122.3z M64.8,146.3c1.5-2.2,3.5-1.3,3.5-1.3L64.8,146.3z M83.6,159.1l-3.5,1.3
	C81.6,158.3,83.6,159.1,83.6,159.1z M78.1,154.1l-3.5,1.3C76.1,153.3,78.1,154.1,78.1,154.1z M70,151c1.5-2.2,3.5-1.3,3.5-1.3
	L70,151z M97.3,192.7l0.1,0c0.2,0,0.4,0.1,0.6,0.1C97.8,192.7,97.6,192.7,97.3,192.7z M74.6,156.8c0,0,15.2,16.5,29.2,17.2
	C103.8,173.9,89.5,176.1,74.6,156.8z M72.3,117.9c0-1.1-1.3-2.7-1.3-2.7C73.5,116.4,72.3,117.9,72.3,117.9z M63.8,115.3
	c-0.5-2.1-2.2-3.2-2.2-3.2C65,113.6,63.8,115.3,63.8,115.3z M44.3,115.3c0,0,0.5,1.2,2.2,1.3C46.5,116.6,44.5,117.4,44.3,115.3z
	 M46.5,112c2.7-0.2,2,1.6,2,1.6C48.1,112.3,46.5,112,46.5,112z M47.6,122.3c0,0,2.7,1,5.3,0C53,122.3,51.8,124.3,47.6,122.3z
	 M55.8,113.6l-2.8-3.2C55.8,111.9,55.8,113.6,55.8,113.6z M55.8,128.8c2.2,0.3,4,0,4,0C58.6,129.6,55.8,128.8,55.8,128.8z
	 M80.5,142.6c-8.8-4.4-22.2-17-22.2-17c4.7,4.4,12.9,9.9,17.8,13.1c2.2,1.4,4.5,2.7,6.8,4c12.6,6.9,22.4,21.6,22.4,21.6
	C96.1,151.4,80.5,142.6,80.5,142.6z M55.8,115.3c38,4.3,55.2,35,55.2,35C92.1,121.1,55.8,115.3,55.8,115.3z"/>
</svg>
