<?xml version="1.0" encoding="utf-8"?>
<!-- Generator: Adobe Illustrator 19.1.0, SVG Export Plug-In . SVG Version: 6.00 Build 0)  -->
<svg version="1.1" id="Layer_1" xmlns="http://www.w3.org/2000/svg" xmlns:xlink="http://www.w3.org/1999/xlink" x="0px" y="0px"
	 viewBox="-49 51 200 200" style="enable-background:new -49 51 200 200;" xml:space="preserve">
<style type="text/css">
	.st0{fill:#7E706D;}
</style>
<path class="st0" d="M-30.2,153c0,19.7,24.3,20.4,24.3,20.4c16.3,13.1,35.7,15.9,35.7,15.9c-2.4-2.2-9-12.2-9-12.2
	c19.8-1.3,34-5.1,34-5.1s0.9,4,3.7,5.1c2.8,1.1,17.3-14.8,28.8-20s45,7,45,7s-11.6-5.3-18.6-11c-6-4.9,10.3-16.2,15-19.3
	c-5.4,3.4-27.3,16.7-40.8,16.1c-15.5-0.7-23.1-6.8-23.1-6.8s0.1-4.1-2.4-4.3c-2.5-0.3-37.2,1-50-26c0,0-13.1,12.3-14.2,21.1
	C-1.9,133.7-30.2,136.8-30.2,153z M-4.8,168.3c0,0,5.9-5.8,6.6-12.4c0.9-9.6-3.9-14.1-3.9-14.1s9.4,2.7,9.2,13.7
	S-4.8,168.3-4.8,168.3z M-17.9,148.1c0-1.2,1-2.2,2.2-2.2s2.2,1,2.2,2.2c0,1.2-1,2.2-2.2,2.2C-16.9,150.4-17.9,149.4-17.9,148.1z"/>
</svg>
