<?xml version="1.0" encoding="utf-8"?>
<!-- Generator: Adobe Illustrator 19.1.0, SVG Export Plug-In . SVG Version: 6.00 Build 0)  -->
<svg version="1.1" id="Layer_1" xmlns="http://www.w3.org/2000/svg" xmlns:xlink="http://www.w3.org/1999/xlink" x="0px" y="0px"
	 viewBox="-49 51 200 200" style="enable-background:new -49 51 200 200;" xml:space="preserve">
<style type="text/css">
	.st0{fill:#C26558;}
</style>
<g>
	<g>
		<path class="st0" d="M91,173.1c-7-7.7-15.8-7-21.4-6.9c-2.8,0.1-6.9,0.3-9.4,0.5c0-0.9,0-1.7,0-2.6c24.5-5.2,22-19.6,22-19.6
			c-6.2,14.1-16.9,15.7-22,15.6c0-1.5,0-3-0.1-4.5c15.7-1.6,17.5-20.4,17.5-20.4C72.9,148.6,64,151,60,151.4
			c-0.2-3.3-0.4-6.5-0.7-9.5c13-3.8,13.3-17,13.3-17s9.1-0.4,13.4-12.7c6.4-18.1-6.5-28.6-6.5-28.6c0.5,7.1-6,10.8-6,10.8
			c-0.5,0-0.9-4.2-0.9-4.2c-16.3,11.4-3,33.8-3,33.8c-2.3,10-7.8,13.3-10.7,14.3c-0.8-5.8-1.8-10.7-3-14.3c-2.3,0.6-3.1,0.7-4.9,0.7
			s-3.4-0.3-4.9-0.7c-1.2,3.6-2.2,8.5-3,14.3c-3-1.1-8.5-4.4-10.7-14.3c0,0,13.4-22.3-3-33.8c0,0-0.4,4.2-0.9,4.2
			c0,0-6.6-3.7-6-10.8c0,0-12.8,10.4-6.5,28.6c4.3,12.3,13.4,12.7,13.4,12.7s0.3,13.2,13.3,17c-0.3,3-0.6,6.2-0.7,9.5
			c-4-0.4-12.8-2.8-17.6-16.2c0,0,1.8,18.7,17.5,20.4c0,1.5-0.1,3-0.1,4.5c-5,0.1-15.8-1.4-22-15.6c0,0-2.5,14.4,22,19.6
			c0,0.9,0,1.7,0,2.6c-2.5-0.2-6.6-0.4-9.4-0.5c-5.6-0.2-14.4-0.8-21.4,6.9c0.5-0.5,7.3-7,30.9-2.9c0.1,1.5,0.1,2.9,0.2,4.3
			c-4.9-0.3-17.1-0.1-17.7,10.8c0,0,5.5-9.9,17.9-8.2c0.9,12.6,3,22.6,5.6,27.2c-4.8,2.7-12.7,7.9-7.6,11.2
			c4.6,2.9,7.9,2.9,10.7,2.9c2.8,0,6.2,0,10.7-2.9c5.1-3.3-2.8-8.6-7.6-11.2c2.6-4.5,4.7-14.6,5.6-27.2c12.4-1.8,17.9,8.2,17.9,8.2
			c-0.6-10.9-12.9-11.2-17.7-10.8c0.1-1.4,0.2-2.8,0.2-4.3C83.7,166.1,90.5,172.6,91,173.1z"/>
	</g>
	<g>
		<path class="st0" d="M57.8,130.8c0,0-0.2-0.6-0.6-1.8c-0.4-1.2-0.9-2.8-1.4-4.8s-1-4.4-1.4-7c-0.2-1.3-0.3-2.6-0.4-4
			c0-0.7-0.1-1.4-0.1-2.1c0-0.7,0.1-1.5,0.2-2.2c0.2-1.4,0.6-2.8,1-4.1c0.4-1.3,0.9-2.5,1.2-3.8c0.4-1.2,0.7-2.4,0.9-3.6
			c0.2-1.1,0.4-2.2,0.5-3.3c0.1-1,0.2-2,0.2-2.8c0.1-0.8,0.1-1.6,0.1-2.2c0-1.2,0-1.9,0-1.9s0.1,0.7,0.2,1.9
			c0.1,0.6,0.1,1.3,0.2,2.2c0.1,0.8,0.1,1.8,0.1,2.9c0,1-0.1,2.2-0.3,3.4c-0.1,1.2-0.4,2.4-0.7,3.7c-0.3,1.3-0.8,2.6-1.2,3.8
			c-0.4,1.3-0.8,2.6-1,3.9c-0.1,0.7-0.2,1.3-0.2,2s0,1.4,0,2c0.1,1.3,0.1,2.7,0.3,3.9c0.1,1.3,0.3,2.5,0.5,3.7s0.4,2.3,0.5,3.3
			c0.4,2,0.7,3.7,1,4.9C57.6,130.1,57.8,130.8,57.8,130.8z"/>
	</g>
	<g>
		<path class="st0" d="M44.2,130.8c0,0,0.2-0.7,0.4-1.9c0.3-1.2,0.6-2.9,1-4.9c0.2-1,0.4-2.1,0.5-3.3c0.2-1.2,0.3-2.4,0.5-3.7
			c0.1-1.3,0.2-2.6,0.3-3.9c0-0.6,0-1.4,0-2c-0.1-0.7-0.1-1.3-0.2-2c-0.2-1.3-0.6-2.6-1-3.9s-0.8-2.6-1.2-3.8
			c-0.3-1.3-0.6-2.5-0.7-3.7c-0.2-1.2-0.2-2.3-0.3-3.4c0-1,0-2,0.1-2.9c0.1-0.8,0.1-1.6,0.2-2.2c0.1-1.2,0.2-1.9,0.2-1.9
			s0,0.7,0,1.9c0,0.6,0,1.3,0.1,2.2c0,0.8,0.1,1.8,0.2,2.8s0.2,2.1,0.5,3.3c0.2,1.2,0.5,2.3,0.9,3.6c0.4,1.2,0.8,2.5,1.2,3.8
			c0.4,1.3,0.8,2.7,1,4.1c0.1,0.7,0.2,1.4,0.2,2.2c0,0.7,0,1.4-0.1,2.1c-0.1,1.4-0.2,2.7-0.4,4c-0.4,2.6-0.9,5-1.4,7s-1,3.7-1.4,4.8
			C44.5,130.2,44.2,130.8,44.2,130.8z"/>
	</g>
</g>
</svg>
