<?xml version="1.0" encoding="utf-8"?>
<!-- Generator: Adobe Illustrator 19.1.0, SVG Export Plug-In . SVG Version: 6.00 Build 0)  -->
<svg version="1.1" id="Layer_1" xmlns="http://www.w3.org/2000/svg" xmlns:xlink="http://www.w3.org/1999/xlink" x="0px" y="0px"
	 viewBox="-49 51 200 200" style="enable-background:new -49 51 200 200;" xml:space="preserve">
<style type="text/css">
	.st0{display:none;fill:#353536;}
	.st1{fill:#6E9B74;}
</style>
<path class="st0" d="M51,185.7c4.7,0,12.9-0.7,20.2-3.2c4.6,14.2-6.5,24-6.5,24c14.5-7.8,11.7-19.7,9.4-25.1
	c0.6-0.2,1.1-0.5,1.7-0.8c3.4,4.4,10.3,13.5,13.2,17.3c0,0-1.4-9-9.7-18.7c0.1-0.1,1.1-1.4,1.2-1.5c6.8,7.2,23.4,17.1,23.4,17.1
	c-4.6-8.4-15.5-16.3-20.7-19.8l0.1-0.1C109,176.1,111,157,111,157c-7,11-19.5,13.5-25.5,14c0.5-1.2,0.8-2.5,0.9-3.9
	c9.1-2.2,14.4-12.9,14.4-12.9c11-3.9,13.9-13.4,14.6-19.5c3.7-34.5-22.3-39.3-22.3-39.3c13.3,15.6,4.4,34,4.4,34
	c-5.1,0.2-4.4-9.8-4.4-9.8c-13,15.4,0.9,24.9,0.9,24.9c-0.4,7.7-5.6,11.4-9,12.9c-6.2-18.2-24.2-19-34-19s-27.8,0.8-34,19
	c-3.4-1.5-8.6-5.2-9-12.9c0,0,13.8-9.4,0.9-24.9c0,0,0.7,10-4.4,9.8c0,0-8.9-18.4,4.4-34c0,0-25.9,4.8-22.3,39.3
	c0.6,6,3.5,15.6,14.5,19.5c0,0,5.3,10.8,14.4,12.9c0.1,1.4,0.5,2.7,0.9,3.9c-5.9-0.5-18.4-3-25.5-14c0,0,2,19,27.7,17.9l0.1,0.1
	c-5.2,3.4-16.1,11.4-20.7,19.8c0,0,16.6-9.9,23.4-17.1c0.1,0.1,1.1,1.4,1.2,1.5c-8.3,9.8-9.7,18.7-9.7,18.7
	c2.9-3.8,9.8-12.9,13.2-17.3c0.5,0.3,1.1,0.5,1.7,0.8c-2.3,5.5-5.1,17.4,9.4,25.1c0,0-11.1-9.8-6.5-24
	C38.1,185.1,46.3,185.7,51,185.7z"/>
<g>
	<g>
		<path class="st1" d="M93.3,85.8c-1.4,2.1-2.8,4.3-4.2,6.4c-3.5,5.6-8.6,9.7-13.3,14.2c-5,4.7-7.5,10.5-7.9,17.3
			c-0.3,5.6-2.4,10.6-5.1,15.4c-2.8,5.1-5,10.5-6.2,16.2c-1,5-1.6,9.9-0.9,15c0.3,1.8,0.7,3.5,1.2,5.7c1.6-2.4,3.1-4.4,4.3-6.7
			c1.6-3,2.9-6.2,4.2-9.3c2.5-6.2,6.8-10.7,12.6-13.8c4.1-2.2,8.2-4.3,12.2-6.5c0.4-0.2,0.9-0.3,1.4-0.5c0.1,0.1,0.2,0.3,0.3,0.4
			c-0.5,0.5-1,1-1.5,1.5c-6.3,5.3-12.1,11-16,18.3c-2.3,4.3-3.8,9.1-5.4,13.8c-2,5.9-5.1,11.1-8.5,16.2c-1.7,2.6-3.2,5.5-4.8,8.2
			c-0.6,1.1-0.9,2.2-1.4,3.5c0.8,0.6,1.5,0.7,2.2-0.4c1.8-2.9,3.6-5.9,5.5-8.8c1.7-2.5,3.6-4.9,6.6-6.1c0.7-0.3,1.4-0.3,2.1-0.5
			c0.1,0.1,0.1,0.2,0.2,0.3c-0.2,0.4-0.4,0.8-0.7,1.1c-4.2,3.5-7.2,7.9-9.4,12.9c-0.2,0.5-0.6,1-0.9,1.4c-1,1.4-2.2,2.6-1.3,4.6
			c0.4,0.8,0,2.1-0.5,2.9c-3.1,6.4-6.8,8.5-14.1,8.3c-2.2,0-4.4-0.5-6.6-1.2c-1.9-0.6-3.2-2-3.4-4.3c-1.8,0-2.6-1.2-2.9-2.8
			c-0.3-1.4-1.4-2.1-2.6-2.8c-1.2-0.6-2.5-1.2-2.6-2.8c-0.1-2.2,1.9-3.5,4.5-3c0.5-0.6,1-1.2,1.5-1.9c-1-1.5-2.2-2.8-3-4.4
			c-1.1-2.2-1.6-4.6-2.7-6.7c-1-1.9-2.4-3.8-4.1-5c-4.3-3-6.5-7.3-8.1-11.9c-1.1-3.1-0.5-6.6-0.1-9.9c0.3-3.5,0.8-7,0.8-10.4
			c0-3.5-1.2-6.8-2.6-10.1c-1.1-2.4-1.8-5.1-2.4-7.7c-0.6-2.7-0.6-5.6-1-8.3c-0.7-5.2,0.9-9.7,3.8-14c4.4-6.6,8.7-13.2,12.1-20.3
			c0.2-0.4,0.5-0.8,1.1-1.1c0.1,0.5,0.3,1.1,0.2,1.5c-1.2,5-2.4,10.1-3.6,15.1c-1,4.1-2.9,7.9-3.3,12.2c-0.4,4.8,0.7,9.4,1.9,13.9
			c0.2,1,0.5,1.9,0.7,2.9c0.5,2.6,1.8,4.8,3.2,6.9c2,2.9,3.4,6,3.5,9.6c0,1.4-0.2,2.9-0.6,4.3c-0.3,1.3-0.8,2.5-1.4,3.7
			c-1.6,3.1-1.5,6.1,0,9.4c1.9,4,4.3,7.6,7.4,11c-0.5-5.2-3.5-9.1-6.3-13c0.1-0.1,0.2-0.3,0.3-0.4c0.5,0.2,1.1,0.2,1.4,0.6
			c1.7,2.1,3.5,4.2,5,6.5c1.8,2.8,3.3,5.7,5.1,8.9c0.2-3.5-0.7-6.3-2.4-8.8c-2.1-3-2.2-6.2-1.6-9.8c0.9-5.5,2.4-10.7,3.7-16.1
			c0.8-3,0.9-6.2,1.3-9.3c0.1-0.7,0.3-1.4,0.4-2.1c0.2,0,0.4,0,0.6,0c0.2,0.6,0.5,1.2,0.5,1.8c-0.3,5.4-0.6,10.9-1,16.3
			c-0.1,1.2-0.5,2.4-0.8,3.5c-1,3.3-0.2,6.5,0.6,9.6c0.6,2.3,1.4,4.5,2.2,6.8c0.3,0.8,0.8,1.5,1.4,2.5c0.8-3.9,0.6-7.4,0-11
			c-0.6-3.7-1.4-7.4-1.6-11.1c-0.2-5.1,1.7-9.7,4.3-14c1.7-3,3.5-6,5.4-8.8c1.1-1.7,2.4-3.2,3.6-4.8c3-3.8,4.4-8.3,5.4-12.9
			c0.5-2.4,1-4.8,1.7-7.1c1.5-4.8,4.8-7.9,9.1-10.1c3.8-1.9,7.7-3.5,11.5-5.5c2.5-1.3,4.9-2.8,7.4-4.2c0.5-0.3,1.1-0.5,1.6-0.8
			C92.9,85.4,93.1,85.6,93.3,85.8z"/>
	</g>
</g>
</svg>
