<?xml version="1.0" encoding="utf-8"?>
<!-- Generator: Adobe Illustrator 19.1.0, SVG Export Plug-In . SVG Version: 6.00 Build 0)  -->
<svg version="1.1" id="Layer_1" xmlns="http://www.w3.org/2000/svg" xmlns:xlink="http://www.w3.org/1999/xlink" x="0px" y="0px"
	 viewBox="-49 51 200 200" style="enable-background:new -49 51 200 200;" xml:space="preserve">
<style type="text/css">
	.st0{fill:#C28B9A;}
</style>
<g>
	<g>
		<path class="st0" d="M30.9,148.4c0,0,0.6,0,1.5,0.2c0.5,0.1,1,0.2,1.7,0.5c0.3,0.1,0.7,0.2,1,0.4c0.3,0.2,0.7,0.3,1.1,0.5
			s0.7,0.4,1.1,0.7s0.7,0.6,1.1,0.9c0.4,0.3,0.7,0.6,1.1,1c0.3,0.4,0.7,0.7,1.1,1.1c0.6,0.8,1.4,1.7,1.9,2.6c0.3,0.5,0.6,1,0.8,1.4
			l0.7,1.5c0.5,1,0.8,2.1,1.1,3.1c0.4,1,0.6,2.1,0.8,3.1c0.2,1,0.4,2,0.5,2.9c0.1,0.9,0.2,1.8,0.2,2.7c0.1,0.8,0,1.6,0,2.2
			c0,0.7,0,1.2,0,1.7c0,1,0,1.5,0,1.5s-0.1-0.5-0.2-1.5c-0.1-0.5-0.1-1-0.2-1.7c-0.1-0.7-0.1-1.4-0.3-2.2c-0.1-0.8-0.3-1.7-0.4-2.6
			s-0.4-1.9-0.6-2.8c-0.1-0.5-0.2-1-0.4-1.5c-0.1-0.5-0.3-1-0.5-1.5c-0.3-1-0.6-2-1.1-3l-0.6-1.5c-0.2-0.5-0.5-0.9-0.8-1.4
			c-0.5-0.9-1.1-1.7-1.7-2.6c-0.3-0.4-0.6-0.7-0.9-1.1c-0.3-0.4-0.6-0.7-1-1c-0.3-0.3-0.7-0.6-1-0.9s-0.7-0.5-1-0.7
			c-0.3-0.3-0.7-0.4-1-0.6c-0.3-0.2-0.6-0.4-0.9-0.5c-0.6-0.3-1.1-0.5-1.6-0.7c-0.5-0.1-0.8-0.3-1.1-0.3
			C31,148.4,30.9,148.4,30.9,148.4z"/>
	</g>
	<g>
		<path class="st0" d="M38,148.4c0,0,0.5,0.1,1.4,0.5c0.4,0.2,0.9,0.4,1.5,0.7c0.6,0.3,1.2,0.7,1.8,1.1c0.6,0.5,1.3,1,2,1.6
			c0.3,0.3,0.7,0.7,1,1c0.3,0.4,0.6,0.8,0.9,1.1l0.5,0.6l0.4,0.6c0.3,0.4,0.5,0.9,0.8,1.3c0.2,0.5,0.5,0.9,0.7,1.4s0.5,0.9,0.6,1.5
			l0.5,1.5l0.2,0.8l0.2,0.8c0.1,0.5,0.2,1,0.3,1.5c0,0.2,0.1,0.5,0.1,0.7c0,0.3,0,0.5,0.1,0.7c0.1,1,0.2,1.9,0.2,2.8
			c0,0.9,0,1.8-0.1,2.5c0,0.4,0,0.8,0,1.1c-0.1,0.4-0.1,0.7-0.1,1c-0.1,0.6-0.2,1.2-0.2,1.6c-0.1,0.9-0.2,1.4-0.2,1.4s0-0.5,0-1.4
			c0-0.5,0-1,0-1.6c0-0.3,0-0.6,0-1s0-0.7-0.1-1.1c0-0.8-0.1-1.6-0.2-2.5c-0.1-0.9-0.3-1.8-0.4-2.7c0-0.2-0.1-0.5-0.1-0.7l-0.2-0.7
			c-0.1-0.5-0.2-1-0.3-1.4l-0.2-0.7l-0.2-0.7l-0.5-1.4c-0.1-0.5-0.4-0.9-0.6-1.4s-0.4-0.9-0.6-1.4c-0.5-0.8-0.9-1.7-1.5-2.5
			c-0.3-0.4-0.6-0.8-0.8-1.1c-0.3-0.3-0.6-0.7-0.9-1s-0.6-0.6-0.9-0.9c-0.3-0.3-0.6-0.6-0.9-0.8c-0.6-0.5-1.1-1-1.6-1.3
			c-0.5-0.4-1-0.7-1.3-0.9c-0.4-0.2-0.7-0.4-0.9-0.5C38.1,148.4,38,148.4,38,148.4z"/>
	</g>
	<g>
		<path class="st0" d="M44.4,148.4c0,0,0.5,0.3,1.3,0.8c0.4,0.3,0.9,0.6,1.4,1.1c0.5,0.4,1.1,0.9,1.7,1.5s1.2,1.2,1.9,2
			c0.6,0.7,1.3,1.5,1.9,2.4c0.3,0.4,0.6,0.9,0.9,1.3c0.3,0.5,0.6,0.9,0.9,1.4c0.6,0.9,1.1,1.9,1.7,2.9c0.5,1,1,2,1.4,3s0.8,2,1.1,3
			c0.3,1,0.6,2,0.8,2.9c0.3,0.9,0.4,1.8,0.6,2.6c0.2,0.8,0.3,1.6,0.4,2.2c0.1,0.7,0.1,1.3,0.2,1.7c0.1,1,0.1,1.5,0.1,1.5
			s-0.1-0.5-0.4-1.5c-0.1-0.5-0.2-1-0.4-1.7c-0.1-0.7-0.4-1.4-0.6-2.2c-0.3-0.8-0.4-1.7-0.8-2.5c-0.3-0.9-0.6-1.8-1-2.8
			c-0.4-0.9-0.8-1.9-1.2-2.9c-0.5-1-0.9-2-1.4-2.9c-0.5-1-1-1.9-1.6-2.8c-0.3-0.5-0.6-0.9-0.8-1.4c-0.3-0.4-0.6-0.9-0.9-1.3
			c-0.6-0.9-1.2-1.6-1.7-2.4c-0.6-0.7-1.1-1.4-1.7-2.1c-0.5-0.6-1-1.2-1.5-1.7c-0.4-0.5-0.9-0.9-1.2-1.2
			C44.9,148.7,44.4,148.4,44.4,148.4z"/>
	</g>
	<g>
		<path class="st0" d="M47.5,148.3c0,0,0.6,0,1.5,0.2c0.5,0.1,1,0.2,1.7,0.5c0.3,0.1,0.7,0.2,1,0.4c0.3,0.2,0.7,0.3,1.1,0.5
			c0.4,0.2,0.7,0.4,1.1,0.7c0.4,0.3,0.7,0.6,1.1,0.9s0.7,0.6,1.1,1c0.3,0.4,0.7,0.7,1.1,1.1c0.6,0.8,1.4,1.7,1.9,2.6
			c0.3,0.5,0.6,1,0.8,1.4l0.7,1.5c0.5,1,0.8,2.1,1.1,3.1c0.4,1,0.6,2.1,0.8,3.1c0.2,1,0.4,2,0.5,2.9s0.2,1.8,0.2,2.7
			c0.1,0.8,0,1.6,0,2.2c0,0.7,0,1.2,0,1.7c0,1,0,1.5,0,1.5s-0.1-0.5-0.2-1.5c-0.1-0.5-0.1-1-0.2-1.7s-0.1-1.4-0.3-2.2
			c-0.1-0.8-0.3-1.7-0.4-2.6c-0.1-0.9-0.4-1.9-0.6-2.8c-0.1-0.5-0.2-1-0.4-1.5c-0.1-0.5-0.3-1-0.5-1.5c-0.3-1-0.6-2-1.1-3l-0.6-1.5
			c-0.2-0.5-0.5-0.9-0.8-1.4c-0.5-0.9-1.1-1.7-1.7-2.6c-0.3-0.4-0.6-0.7-0.9-1.1s-0.6-0.7-1-1c-0.3-0.3-0.7-0.6-1-0.9
			c-0.3-0.3-0.7-0.5-1-0.7c-0.3-0.3-0.7-0.4-1-0.6s-0.6-0.4-0.9-0.5c-0.6-0.3-1.1-0.5-1.6-0.7c-0.5-0.1-0.8-0.3-1.1-0.3
			C47.7,148.4,47.5,148.3,47.5,148.3z"/>
	</g>
	<g>
		<path class="st0" d="M54.7,148.3c0,0,0.5,0.1,1.4,0.5c0.4,0.2,0.9,0.4,1.5,0.7c0.6,0.3,1.2,0.7,1.8,1.1c0.6,0.5,1.3,1,2,1.6
			c0.3,0.3,0.7,0.7,1,1c0.3,0.4,0.6,0.8,0.9,1.1l0.5,0.6l0.4,0.6c0.3,0.4,0.5,0.9,0.8,1.3c0.2,0.5,0.5,0.9,0.7,1.4s0.5,0.9,0.6,1.5
			l0.5,1.5L67,162l0.2,0.8c0.1,0.5,0.2,1,0.3,1.5c0,0.2,0.1,0.5,0.1,0.7c0,0.3,0,0.5,0.1,0.7c0.1,1,0.2,1.9,0.2,2.8s0,1.8-0.1,2.5
			c0,0.4,0,0.8,0,1.1c-0.1,0.4-0.1,0.7-0.1,1c-0.1,0.6-0.2,1.2-0.2,1.6c-0.1,0.9-0.2,1.4-0.2,1.4s0-0.5,0-1.4c0-0.5,0-1,0-1.6
			c0-0.3,0-0.6,0-1c0-0.4,0-0.7-0.1-1.1c0-0.8-0.1-1.6-0.2-2.5s-0.3-1.8-0.4-2.7c0-0.2-0.1-0.5-0.1-0.7l-0.2-0.7
			c-0.1-0.5-0.2-1-0.3-1.4l-0.2-0.7l-0.2-0.7l-0.5-1.4c-0.1-0.5-0.4-0.9-0.6-1.4s-0.4-0.9-0.6-1.4c-0.5-0.8-0.9-1.7-1.5-2.5
			c-0.3-0.4-0.6-0.8-0.8-1.1c-0.3-0.3-0.6-0.7-0.9-1c-0.3-0.3-0.6-0.6-0.9-0.9s-0.6-0.6-0.9-0.8c-0.6-0.5-1.1-1-1.6-1.3
			c-0.5-0.4-1-0.7-1.3-0.9c-0.4-0.2-0.7-0.4-0.9-0.5C54.8,148.4,54.7,148.3,54.7,148.3z"/>
	</g>
	<g>
		<path class="st0" d="M61.1,148.3c0,0,0.5,0.3,1.3,0.8c0.4,0.3,0.9,0.6,1.4,1.1c0.5,0.4,1.1,0.9,1.7,1.5c0.6,0.6,1.2,1.2,1.9,2
			c0.6,0.7,1.3,1.5,1.9,2.4c0.3,0.4,0.6,0.9,0.9,1.3c0.3,0.5,0.6,0.9,0.9,1.4c0.6,0.9,1.1,1.9,1.7,2.9c0.5,1,1,2,1.4,3s0.8,2,1.1,3
			c0.3,1,0.6,2,0.8,2.9c0.3,0.9,0.4,1.8,0.6,2.6c0.2,0.8,0.3,1.6,0.4,2.2c0.1,0.7,0.1,1.3,0.2,1.7c0.1,1,0.1,1.5,0.1,1.5
			s-0.1-0.5-0.4-1.5c-0.1-0.5-0.2-1-0.4-1.7c-0.1-0.7-0.4-1.4-0.6-2.2c-0.3-0.8-0.4-1.7-0.8-2.5c-0.3-0.9-0.6-1.8-1-2.8
			c-0.4-0.9-0.8-1.9-1.2-2.9c-0.5-1-0.9-2-1.4-2.9c-0.5-1-1-1.9-1.6-2.8c-0.3-0.5-0.6-0.9-0.8-1.4c-0.3-0.4-0.6-0.9-0.9-1.3
			c-0.6-0.9-1.2-1.6-1.7-2.4c-0.6-0.7-1.1-1.4-1.7-2.1c-0.5-0.6-1-1.2-1.5-1.7c-0.4-0.5-0.9-0.9-1.2-1.2
			C61.5,148.7,61.1,148.3,61.1,148.3z"/>
	</g>
	<g>
		<path class="st0" d="M50.4,146.6c0,0,2.5,1.7,6.9,4.7c4.3,3,10.6,7.3,17.9,12.6c1.9,1.3,3.7,2.9,5.8,3.9c2.1,1.1,4.5,1.9,7,2.6
			c5,1.3,10.4,1.8,16.1,1.6c5.6-0.2,11.4-1.1,16.8-3.4c2.7-1.1,5.3-2.6,7.4-4.6c2.1-2,3.8-4.5,4.4-7.3c1.3-5.8,1.8-11.9,0.3-17.6
			c-0.7-2.8-2.1-5.4-4.1-7.3s-4.7-3-7.5-3.1c-1.4-0.1-2.7,0-4.1,0.2c-1.3,0.2-2.6,0.5-4,0.9c-2.7,0.7-5.3,1.2-7.9,1.5
			c-5.2,0.7-10.2,0.8-14.7,0.3s-8.6-1.5-12.1-2.9c-3.4-1.4-6.1-3.3-8.1-5.1c-2-1.8-3.2-3.5-4-4.7c-0.4-0.6-0.6-1.1-0.8-1.4
			c-0.2-0.3-0.3-0.5-0.3-0.5s0.1,0.2,0.3,0.5c0.2,0.3,0.4,0.8,0.9,1.4c0.8,1.2,2.1,2.8,4.1,4.5s4.7,3.5,8.1,4.8s7.5,2.3,12,2.7
			s9.4,0.2,14.5-0.5c2.6-0.4,5.2-0.9,7.8-1.6c1.3-0.4,2.7-0.7,4.1-1c1.4-0.2,2.9-0.3,4.3-0.2c2.9,0.2,5.9,1.3,8.2,3.4
			s3.7,4.9,4.5,7.9c0.8,2.9,1,6,1,9.1c-0.1,3-0.5,6.1-1.2,9.1c-0.7,3.1-2.5,5.8-4.8,7.9s-5,3.6-7.8,4.8c-5.6,2.3-11.6,3.2-17.3,3.4
			c-5.7,0.2-11.3-0.4-16.3-1.8c-2.5-0.7-4.9-1.6-7.1-2.8c-1.1-0.6-2.1-1.3-3.1-2c-0.9-0.7-1.9-1.4-2.8-2.1
			C60.3,153.6,50.4,146.6,50.4,146.6z"/>
	</g>
	<g>
		<path class="st0" d="M50.4,137.1c0,0,2.6,1.5,7.1,4.3c2.2,1.4,4.9,3.2,8,5.3c3,2.1,6.4,4.6,9.9,7.5c0.9,0.7,1.7,1.5,2.6,2.3
			c0.9,0.8,1.8,1.5,2.8,2.1c2,1.3,4.4,2.2,6.8,3c4.9,1.4,10.4,1.9,16.1,1.7c5.6-0.3,11.4-1.4,16.8-3.7c2.7-1.2,5.2-2.7,7.4-4.7
			c2.1-2,3.8-4.5,4.6-7.3c1.3-5.8,1.9-12,0.5-17.6c-0.7-2.8-2-5.5-4-7.4c-2-2-4.7-3.1-7.4-3.3c-1.4-0.1-2.7-0.1-4.1,0.1
			c-1.4,0.2-2.6,0.5-4,0.9c-2.7,0.7-5.3,1.2-7.9,1.5c-5.2,0.7-10.2,0.8-14.7,0.3c-4.6-0.4-8.7-1.5-12.1-2.9s-6.2-3.3-8.1-5.1
			c-2-1.8-3.2-3.5-4-4.7c-0.4-0.6-0.6-1.1-0.8-1.4c-0.2-0.3-0.3-0.5-0.3-0.5s0.1,0.2,0.3,0.5c0.2,0.3,0.4,0.8,0.9,1.4
			c0.8,1.2,2.1,2.8,4.1,4.6c2,1.7,4.7,3.5,8.2,4.8c3.4,1.3,7.5,2.3,12,2.6c4.5,0.4,9.4,0.2,14.6-0.5c2.6-0.4,5.2-0.9,7.8-1.6
			c2.6-0.8,5.5-1.4,8.4-1.1c2.9,0.2,5.9,1.4,8.1,3.5c2.2,2.1,3.6,5,4.4,8c0.8,3,1,6.1,0.9,9.1c-0.1,3.1-0.5,6.1-1.3,9.1
			c-0.8,3.1-2.7,5.8-4.9,7.9c-2.3,2.1-5,3.7-7.8,4.9c-5.6,2.4-11.5,3.5-17.2,3.7c-5.7,0.2-11.3-0.4-16.4-1.9c-2.5-0.8-4.9-1.8-7-3.2
			c-1-0.7-2-1.5-2.9-2.3s-1.7-1.6-2.6-2.3c-3.4-3-6.7-5.5-9.7-7.7s-5.6-4-7.8-5.5C53,138.6,50.4,137.1,50.4,137.1z"/>
	</g>
	<path class="st0" d="M83.8,152.1c0.1,0.1,0.2,0.3,0.2,0.4C84,152.4,83.9,152.2,83.8,152.1z"/>
	<path class="st0" d="M25.6,148.4c0,0-7-3.8-7.9-13c-0.7-7,4.6-13.7,4.6-13.7c-14.1-5.2-32.9,5.2-28,19.4
		C0,157.4,25.6,148.4,25.6,148.4z"/>
	<path class="st0" d="M6.2,154.9c0,0-11.7-2.3-15.9-10.3c-4.6-8.9,0.2-15.6,0.2-15.6c-13.4,1.3-18.7,15.4-13,22.8
		C-14,163.1,6.2,154.9,6.2,154.9z"/>
	<path class="st0" d="M-19.5,170.9c15.9,3.2,18.3-10.6,18.3-10.6s-9.4,2.4-18-0.8c-7.8-3-8.6-11.1-8.6-11.1S-36,167.6-19.5,170.9z"
		/>
	<path class="st0" d="M-11.9,176.5c-11.5,2.5-17.2-6.1-17.2-6.1c1.5,7.7,6,19.2,19.9,15.3c13.2-3.8,8.7-19.1,8.7-19.1
		S-2.9,174.5-11.9,176.5z"/>
	<path class="st0" d="M3.2,176.5c-1.6,12.2-16.3,13.6-16.3,13.6c2.1,2.9,14.1,4.5,18.7-1.2C11.1,182.2,3.2,176.5,3.2,176.5z"/>
	<path class="st0" d="M6.2,192.8c13.5,1.5,27.3-2.9,26.9-8.1c-0.4-5.2-4.4-7.9-7.5-3.9c-3.2,4-14.7,2-14.7,2
		C12.7,189.5,6.2,192.8,6.2,192.8z"/>
	<path class="st0" d="M68.2,143.6c6.2,1.1,18.7,0,18.7,0s-12.9,0-25.4-11.4c-12.5-11.5-21.1-12.4-28.9-11.8
		c-4.6,0.4-12.1,5.1-11.8,14c0.4,11.6,9.5,13,25.1,11.4c15-1.5,35.2,2.8,37.9,6.3C79.9,145.7,68.2,143.6,68.2,143.6z M60.2,138.7
		c-0.9,0-1.6-0.7-1.6-1.6c0-0.9,0.7-1.6,1.6-1.6s1.6,0.7,1.6,1.6C61.8,138,61.1,138.7,60.2,138.7z"/>
</g>
</svg>
