<?xml version="1.0" encoding="utf-8"?>
<!-- Generator: Adobe Illustrator 19.1.0, SVG Export Plug-In . SVG Version: 6.00 Build 0)  -->
<svg version="1.1" id="Layer_1" xmlns="http://www.w3.org/2000/svg" xmlns:xlink="http://www.w3.org/1999/xlink" x="0px" y="0px"
	 viewBox="-49 51 200 200" style="enable-background:new -49 51 200 200;" xml:space="preserve">
<style type="text/css">
	.st0{fill:#689676;}
</style>
<path class="st0" d="M83,86.8c-0.7,0-0.1-0.4,0.1-1.2c0.2-0.8,0-2-0.4-2.6c-0.4-0.6-0.4-2.1-0.8-2.6c-0.4-0.5-1.2-0.4-1.6,0.3
	c-0.3,0.7-1.8,2.7-2.2,3.7c-0.4,1-1.1,1.3-1.4,1.2c-0.4-0.1-1-0.6-1.6,0.5c-0.6,1.1-0.9,4.1-0.5,5.1c0.4,1,1.5,2.5,0.9,2.7
	c-0.6,0.2-1.1-1.4-1.9-2.4c-0.8-1-1.2-1.4-1.6-0.8c-0.4,0.7-1,2.6,0.1,4.4c1.1,1.8-0.2,0.5,0.2,1.7c0.4,1.2,0.7,1.4,0.8,2.2
	c0.1,0.8-0.1,1,0.4,2c0.5,1,0.8,2,0.4,2.8c-0.5,0.7-1.6-0.6-2.7-1.6c-1.1-1-1.9-1.7-2.6-1.6c-0.7,0.1-0.3,2.1-0.1,3.2
	c0.1,1.1,0.5,0.7,1.2,1.9c0.7,1.3,0.3,1.2,1.5,2.4c1.2,1.1,1.7,2.7,1.6,4c-0.1,1.3-0.7,1.5-1.4,0.9c-0.7-0.6-1.6-1-2.5-1.2
	c-0.9-0.2-2.1-1.3-1.7,0c0.4,1.3-0.2,1.6,0.3,2.4s1.7,2,3.2,3.9c1.5,1.9,2.3,4.6,1.7,6.9c-0.6,2.3-1.3,3.3-1.9,3
	c-0.7-0.3,0.4,1.1,0.9,3.9c0.5,3.1,0.6,8.6-0.4,17.3s-4.1,19.6-5.2,22.6c-1,2.7-2.2,6.9-3,12.8c-0.4-1.8-0.4-4-0.3-5.5
	c0.2-1.8,0-6.2-0.4-10c-0.3-3.8-0.9-8-0.6-10c0.3-2,0.5-4.1,0.6-5c0.1-0.9,0.7-0.1,1.3,0.4c0.6,0.5,1.9,0.8,2.7,0.7
	c0.7,0,0.3-0.6-0.1-0.7c-0.4-0.1-2.4-1.7-3.3-1.9c0.3-0.7,0.3-2.4,0.6-3.1c0.3-0.7,0.8-0.7,1.6-1.1c0.8-0.5,1.5-0.8,2.8-1.7
	c1.2-0.8,1.9-2,2-2.7c0.1-0.7-0.6-0.5-1.3-0.2c-0.7,0.4-1.2,1.5-2.6,2.3c-1.4,0.8-2-0.8-2-1.5c0.1-0.7,0.9-0.9,2-1.7
	c1.1-0.8,2-1.1,2.6-1.5c0.6-0.5,0.9-0.9,1.7-2.5c-0.2,0.3-1.1,0.3-3,1c-1.9,0.7-1.8,0.2-1.6-1c0.2-1.2,1.6-1.4,1.8-2.3
	c0.2-0.9,0.3-0.8,0.9-1.4c0.5-0.6,0.3-2.1,0.1-2.8c-0.3-0.7-0.1-1.8,0.5-2.7c0.5-0.9-0.3-1-0.5-2.9c-0.3-1.8-1.4-1.8-1.5-1.3
	c-0.1,0.6-1.1,1.7-1.6,2.3c-0.6,0.6-0.9,1.3-0.8,2.8c0.2,1.5,0.1,1.5-0.4,0.5c-0.5-1.1-1.4-1.6-1.8-1.2c-0.5,0.4-0.2,2-0.1,2.7
	c0.1,0.7,0.4,2.6,0.4,3.6c0,1,0.1,1.3,0.4,2.6c0.3,1.2-0.5,1.5-1.4,0.9c-1-0.7-0.9-1.4-1.6-2c-0.6-0.6-1.4-1.4-2-1
	c-0.2,0.2-0.2,0.6-0.1,1.2c-0.9,0.4-2.4,0.8-3.5-0.7c-1.2-1.8-1.4-5-0.7-6.6c0.7-1.6,2-1.6,4.3-3.4c2.3-1.8,2.3-3.8,2-4.2
	c-0.4-0.4-2.8,1.1-4.5,2.2c-1.7,1.1-3.2-0.1-3-2.7c0.2-2.7,2.6-3.5,2.3-4.2c-0.3-0.7,0.5-1.2,1-1.8c0.5-0.6,1.2-1,1.2-2
	c0-1,0.5-2.4,0.3-3c-0.1-0.6-0.9-0.5-1.6,0.1c-0.7,0.6-1.6,1.7-3,2.8c-1.4,1.1-1.7-0.6-1.1-1.8c0.6-1.1,0.8-2.1,1.3-3.9
	c0.5-1.7,1.4-4.4,0.6-5c-0.8-0.6-2,1-2.3,1.8c-0.3,0.8-1,0.6-1.3-0.2c-0.3-0.8-0.3-2.4-0.1-3.6c0.2-1.2-0.3-1.1-1-2.5
	s-1.9-2.9-2.6-3.2c-0.7-0.3-1.5,2.4-1.6,3.6s-0.6,1.5-0.1,2.6s-0.4,1.5-0.4,1.5s0.2,0.8,0.8,1.7c0.6,0.9,0.1,1.6-0.6,1.5
	c-0.6-0.1-2.4-1.1-2.6-0.4c-0.2,0.7,1,2.7,2,3.9c1,1.1,2.5,3,3.1,4.5c0.6,1.5-0.7,1.1-1.3,0.5c-0.6-0.6-1.4-1.3-2.3-1.4
	c-0.9-0.2-2.1,1.1-1.4,2.1c0.7,1,1.4,1,3.4,2.5c1.9,1.4,3.4,2.3,3.7,3.6c0.4,1.3-0.7,2-1.7,1.6s-2-0.2-3-1.4c-1-1.2-3.6,0.1-3,1.3
	s2.4,1.9,5.6,3.7c3.2,1.7,3.7,3.6,3.9,5.2s0,4.3-1,4c-0.5-0.1-2.4-2.2-2.9-1.2c-0.3,0.6,0.8,1.5,1.6,2.6c0.7,1.1,1-0.1,2.5,1.2
	c1.6,1.3,2.3,4.3,2.8,8.9c0.4,4.4,4.3,24.5,5.6,30.8c-0.6-1.1-1.3-2.1-1.8-3c0,0-11.2-23.6-12.9-27.7c-1.6-4.1-2.1-5.1-2.3-7.4
	c-0.1-1.6,0.1-3.8,0.2-5.3c0-1.5-2.9-2.7-3.6-5.8c-0.4-1.8-0.7-2.7-0.7-3.5c0-0.8,1.5-3.8,1.4-5.1c-0.1-1.2-0.1-3.4,0-4.3
	c0-0.8-0.2-1.1-0.8-1.4c-1-0.4-0.7,0.1-1.2,0.7c-0.7,0.8-1.6,0.8-2.5,1.2c-0.5,0.2-0.7,1-1.1,1.1c-0.5,0.1-1.3-0.4-1.6-0.7
	c-0.5-1.6-0.6-3.4-1.1-5c-0.2-0.8-0.9-1.2-1-2c-0.1-0.8,0.2-1.6,0.2-2.4c-0.1-1.1-0.7-1-1-2c-0.3-0.8-0.1-1.5-0.3-2.3
	c-0.4-1.6-0.7-1.8-1.7-3.1c-0.5-0.7-0.5-2.1-2.5-2.5c-1.1-0.2-1.2,0-1.6-1.1c-0.3-1-0.3-1.5-1.2-2.3c-0.7-0.6-1.2-0.8-2-1.3
	c-1.3-0.8-7.6-6.6-7.2-1.7c0.1,0.7,0.2,1.9,0.4,2.5c0.1,0.2,0.5,0.7,0.5,0.9c0.1,0.6-0.3,1-0.3,1.6c0,0.7,0.5,1.2,0.6,1.8
	c0.1,0.8-0.5,1.6-0.2,2.4c0.3,0.6,0.9,1.2,1.2,1.9c0.4,0.8,0.4,1.5,0.8,2.3c0.3,0.7,0.9,1.4,1.3,2c0.2,0.4,1.7,1.8,1.6,2.2
	c0,0,0,0.1,0,0.1c-0.5,0.3-1.4,0.6-2.1,0.8c-0.6,0.1-1.9,0.1-2.3,0.8c-0.6,1,1.7,2.9,2.4,3.6c1.2,1.3,2,2.3,3.8,2.8
	c1.8,0.5,3.8,1,5.3,1.9c0.8,0.5,1.3,1.3,0.6,2.1c-0.5,0.5-1.4,0.6-2,0.7c-2,0.3-3.6,0.6-4.2,2.7c0.1,0.8,1.3,1.1,2.3,1.2
	c0.9,0.1,1.7-0.4,2.6-0.4c1.8,0.1,3,0.2,4.3,1.5c0.6,0.5,1.1,1.2,1.7,1.6c0.8,0.5,1.4,0.5,1.9,1.3c0.5,0.7,0.6,1.2,0.4,2.1
	c-0.2,0.7-0.9,1.6-0.8,2.3c0.1,0.7,1,1.6,1.6,2c0.8,0.6,2.2,0.8,2.9,1.5c2,2.1,3.2,3.8,4.6,7.2c1.4,3.4,11.1,24.3,11.1,24.3
	c1.4,2.8,5,10.6,6.4,13.8c1.5,3.2,1.7,3.5,2.6,4.3c0.3,0.2,0.5,0.4,0.6,0.5c-0.6,0.1-1.3,0.2-1.9-0.9c-1-1.5-2.9-4.3-4.9-6.9
	c-2-2.6-4.8-5.3-6.6-8.3c-1-1.8-1.1-5.9-1.5-8.8c-0.4-2.8-1.3-4-1.6-4.9c-0.3-0.9-1.1-2.5-2.6-2.6c-1.5-0.1-2.8-0.6-3.4-0.2
	s-0.7,2.1-1.6,3c-0.9,0.9-1.2,3.6,1.1,6.9c2.3,3.2,4.4,3.9,6.2,5.6c1.8,1.7,6.2,5.6,8.9,9.3c2.6,3.7,3.8,5.6,5.1,6.8
	c1.1,1.1,1.5,1.7,3.6,1.7c1,3,2,6,2.5,9c0,0.2,0,0.3,0,0.3c0,0.1-0.2,0.3-0.3,0.5l-0.6,1.1l-1.3,2.2c-0.4,0.7-0.9,1.4-1.4,2.1
	c-0.5,0.7-0.9,1.3-1.6,1.8c-1.2,1.1-2.8,1.9-3.9,3.4c-0.4,0.6-0.8,1.2-1.1,1.8c-0.1,0-0.3,0-0.4,0.1c-0.1,0.1-0.2,0.2-0.3,0.3
	c-0.2,0.2-0.3,0.5-0.5,0.7c-0.3,0.4-0.7,0.8-1.1,1c-1,0.3-2,1.1-2.5,2c0.3-0.5,0.7-0.8,1.1-1.1c0.5-0.3,0.9-0.5,1.5-0.6
	c0.6-0.2,1-0.6,1.4-1c0.1-0.1,0.2-0.3,0.3-0.4c-0.3,0.6-0.6,1.1-0.9,1.7l-1.1,2.1c-0.6-0.1-1.2,0-1.7,0.3c-0.6,0.3-1,0.9-1,1.6
	c0,0.6-0.2,1.2-0.6,1.6c-0.4,0.5-0.9,0.8-1.5,1c0.6-0.1,1.2-0.4,1.6-0.9c0.4-0.4,0.7-1.1,0.7-1.7c0-0.6,0.4-1,0.9-1.3
	c0.4-0.2,0.8-0.2,1.3-0.2l-1.1,2c-0.8,1.5-1.8,2.9-3.1,4c1.3-1,2.5-2.4,3.3-3.9l2.6-4.4c0.9-1.4,1.8-2.9,2.7-4.3
	c0.9-1.1,2.3-1.8,3.5-2.7c-0.2,0.4-0.3,0.8-0.5,1.2c-0.5,1-0.7,2.1-1.2,3.1c-0.4,1-1.4,1.6-1.7,2.8c-0.2,1.1-0.5,2.2-0.4,3.3
	c0-1.1,0.3-2.2,0.6-3.2c0.3-1,1.4-1.6,1.9-2.7c0.6-1,0.8-2.1,1.4-3c0.5-0.9,0.8-1.8,1.2-2.6c0,0.1,0.1,0.1,0.1,0.2
	c0.2,0.3,0.3,0.5,0.4,0.8c0.2,0.5,0.1,1.2-0.2,1.7c0.4-0.5,0.6-1.1,0.4-1.8c-0.1-0.5-0.4-1-0.5-1.4c0.2-0.3,0.5-0.5,0.6-0.8
	c0.5-0.7,1-1.4,1.5-2.1l1.4-2.1l0.7-1.1c0,0,0,0,0-0.1c0.1,0.2,0.1,0.3,0.1,0.5c0,0.4-0.2,0.8-0.3,1.3c-0.1,1,0.3,1.8,0.9,2.4
	c-0.5-0.7-0.9-1.6-0.7-2.4c0.1-0.4,0.3-0.8,0.4-1.3c0.1-0.3,0-0.7-0.2-1c0,0,0-0.1,0.1-0.1c0.1-0.4,0.2-0.7,0.1-0.9
	c-0.4-3.2-1.1-6.2-2-9.1c-0.6-3.5,0.6-6.9,3.1-9.6c2.5-2.6,2.8-3.9,4.1-6.3c1.3-2.4,5-14.1,5.9-15.7c0.3-0.6,0.6-1.2,1-1.8
	c0.3-0.4,0.6-0.8,0.7-1.3c0.1-0.3,0.3-0.5,0.2-0.8c0.6-0.4,1-1,1.7-1.4c0.7-0.4,1.4-0.7,2-1.1c0.6-0.4,1.2-0.7,1.7-1.3
	c0.7-0.9-0.1-1.3-0.9-1.7c-0.5-0.3-0.8-0.5-1.3-0.6c-0.1,0-0.2-0.1-0.4,0c-0.2,0-0.4,0.2-0.6,0.2c-0.3-0.1-0.5-0.5-0.3-0.7
	c0.1-0.1,0.5-0.2,0.6-0.3c0.2-0.1,0.4-0.3,0.5-0.4c0.4-0.3,0.8-0.4,1.2-0.6c0.8-0.4,1.6-1.1,2.3-1.7c0.4-0.3,0.7-0.6,1-0.9
	c0.3-0.3,0.7-0.5,1-0.8c0.4-0.5,0.7-1.1,0.8-1.8c0-0.4,0.3-0.5,0.3-0.9c0.1-0.3-0.1-0.6-0.2-0.8c-0.3-0.6-1.1-0.9-1.8-0.9
	c-0.7,0-1.2,0.5-1.8,0.6c-0.1-0.1-0.1-0.3-0.1-0.5c0.8-0.5,1.7-1,2-2c0.1-0.3,0.2-0.7,0.1-1.1c-0.1-0.4-0.1-0.6,0-1
	c0.5-0.4,0.3-0.7,0.4-1.3c0-0.2,0.2-0.5,0.2-0.7c0-0.2-0.1-0.4-0.2-0.6c-0.2-0.5-0.4-0.7-0.7-1c-0.4-0.4-0.6-0.4-1-0.4
	c-0.5-0.1-0.2-0.2-0.3-0.6c0-0.3-0.1-0.6-0.1-1c0-0.1,0-0.3,0-0.4c0-0.1,0.2-0.1,0.2-0.3c0-0.3-0.5-0.3-0.6-0.5
	c-0.3-0.2-0.3-0.6-0.4-0.9c-0.1-0.3-0.3-0.6-0.5-0.9c-0.3-0.4-0.9-0.7-1.3-0.9c-0.3-0.2-0.3-0.2-0.6,0c-0.3,0.1-0.5,0.3-0.7,0.5
	c-0.2,0.1-0.2,0.3-0.3,0.4c-0.1,0.1-0.3,0.2-0.4,0.3c-0.2,0.3-0.3,0.7-0.5,1.1c-0.1,0.3-0.4,0.6-0.6,0.9c0,0.2-0.1,0.5-0.1,0.7
	c-0.1,0.2-0.4,0.5-0.3,0.7c-0.1,0.1-0.4,0.2-0.6,0.3c-0.4,0.1-1.3,0-1.5,0.6c-0.1,0.3,0.1,0.7,0.2,0.9c0,0.2,0,0.4,0,0.6
	c0,0.2-0.1,0.2-0.2,0.4c-0.1,0.3-0.1,0.5-0.1,0.9c0,0.3,0,0.5-0.1,0.9c-0.1,0.6-0.3,1.6,0,2.1c0.3,0.6,0.8,1.3,0.6,2
	c-0.3,0.9-1.2,0.1-1.6-0.3c-0.5-0.5-0.9-0.8-1.6-0.7c-0.8,0.1-0.8,0.6-0.8,1.3c0,0.5-0.2,1.1-0.1,1.6c0,0.3,0.1,0.5,0.1,0.8
	c0,0.3,0,0.6,0.2,0.9c0.2,0.4,0.7,0.7,0.9,1c0.3,0.4,0.8,0.6,1.1,1c0.4,0.4,0.6,1,0.9,1.5c0.2,0.3,0.5,0.4,0.8,0.7
	c0.3,0.3,0.3,0.7,0.5,1c0.2,0.6,0.2,1.3-0.1,1.9c-0.1,0.1-0.1,0.4-0.2,0.5c-0.3,0.3-0.2,0.1-0.4,0c-0.2-0.1-0.5-0.2-0.7-0.3
	c-0.2-0.1-0.4-0.4-0.7-0.5c-0.3-0.1-0.5-0.2-0.8-0.3c-0.1,0-0.2-0.2-0.2-0.2c-0.1,0-0.3,0.2-0.4,0.1c-0.1,0-0.3-0.1-0.4-0.2
	c-0.4-0.1-0.5,0-0.7,0.2c-0.4,0.6-0.2,1.4,0,2.1c0.2,0.6,0.5,1,0.8,1.5c0.3,0.5,0.7,0.8,1,1.3c0.2,0.3,0.4,0.5,0.6,0.8
	c0.2,0.3,0.3,0.5,0.5,0.9c0.2,0.6,0.5,1.3,0.5,1.9c0,0.6-0.6,1.8-0.7,2.3c-0.1,0.3-0.1,0.6-0.2,0.9c-0.1,0.3-0.1,0.5-0.2,0.8
	c-0.5,2.3-3.5,12-6,15.6c-2.3,3.4-5.6,5.2-5.9,11.2c0,0,0,0-0.1-0.1c-0.6-3.2,0.7-8.4,2.7-13.8c2-5.7,4.2-15.3,5.1-21.3
	c0.9-5.9,1.4-12.9,1.7-14.3c0.3-1.4,1.7-1.5,1.8-2c-0.2,0.1-1.4,0.8-1-3.2c0.4-4,1.8-6.5,2.8-7.6c1.1-1.2,2.4-2.2,3.6-2.8
	c1.3-0.6,2-1.6,1.9-2.7c-0.1-1.1-1.6-1.1-2.3-0.7c-0.7,0.4-1.7,0.9-2.6,0.6c-1-0.3-1.6-2-0.9-3.4c0.7-1.4,2.1-1.3,2.9-2.2
	c0.9-0.9,3.2-1.7,3.7-2.5c0.6-0.8,1.9-1.8,2.7-3.5c0.8-1.6,1.2-2,0-2.2c-1.1-0.3-2.9,0.4-4.1,1.5c-1.2,1.1-2.2,0.1-2.9-0.3
	c-0.6-0.4-0.1-1.1,0.8-1.7c0.9-0.6,1.8-1.4,2.3-2.2c0.4-0.8,1.2-1.3,1.9-2c0.7-0.7,1.7-1.1,1.8-1.6c0.2-0.5,0.4-1.7,0.5-2.2
	c0.1-0.6-0.6-0.5-1.5-0.5c-1,0.1-1.4,0.8-2.2,1.7c-0.8,0.9-1.4-0.5-1.2-1.4c0.2-0.9,0.6-1.8,1.5-2.8c1-1,1.2-1.8,1.4-3.1
	c0.2-1.3,1.1-2.8,0.9-3.4C85.1,86.1,83.7,86.8,83,86.8z M54.3,147.8c-0.9-5.3,0.1-6.9,1.2-7.8c0.6-0.5,1.5-1.3,2.2-1.9
	c0.2,0.6,0.6,1.3,0.8,1.7c0.5,0.9,1,1.3,1.7,2.3c0.7,1,1.4,1.9,1.5,2.8c0,0.9-1,1.9-1.4,1.5s-1.5-2-2.6-3.1c-1.1-1.2-1.3-0.2-0.7,1
	s2.6,3.7,3.3,4.4c0.8,0.7,0.8,1.4,0.4,2.7c-0.4,1.2-1.3,1.6-2,1c-0.7-0.6-2.4-1.5-2.5-1c-0.1,0.6,0.8,1.2,1.4,1.9
	c0.6,0.8,2.5,1.2,2.8,2.4c0.4,1.3,0.2,5-0.3,4.9c-0.5-0.1-1.9-1.6-1.9-1.1c0.3,2.4,2.1,2.2,2.3,3.6c0.2,1.4,1,10,1,13.4
	c0,2.4,0.4,5.6,0.6,7.1c-0.3-0.4-0.6-0.8-0.9-1.3C57.4,171.8,55.1,152.8,54.3,147.8z"/>
</svg>
